<?xml version="1.0" encoding="UTF-8"?>
<svg width="300px" height="300px" viewBox="0 0 300 300" version="1.1" xmlns="http://www.w3.org/2000/svg" xmlns:xlink="http://www.w3.org/1999/xlink">
    <!-- Generator: Sketch 53 (72520) - https://sketchapp.com -->
    <title>Cleaning &amp; Pest Control</title>
    <desc>Created with Sketch.</desc>
    <g id="Cleaning-&amp;-Pest-Control" stroke="none" stroke-width="1" fill="none" fill-rule="evenodd">
        <g>
            <rect id="Rectangle-3-Copy-4" x="0" y="0" width="300" height="300"></rect>
            <g id="broom" transform="translate(16.000000, 18.000000)" fill-rule="nonzero">
                <path d="M163.613216,196.417275 C161.377271,196.417275 159.565006,198.212754 159.565006,200.427988 L159.565006,210.8546 C159.565006,213.069316 161.376748,214.865313 163.613216,214.865313 C165.849162,214.865313 167.661427,213.069834 167.661427,210.8546 L167.661427,200.427988 C167.661427,198.212754 165.849162,196.417275 163.613216,196.417275 Z" id="Shape" fill="#3C3B5C"></path>
                <path d="M163.613216,224.489678 C161.377271,224.489678 159.565006,226.285156 159.565006,228.50039 L159.565006,238.927002 C159.565006,241.141719 161.376748,242.937715 163.613216,242.937715 C165.849162,242.937715 167.661427,241.142236 167.661427,238.927002 L167.661427,228.50039 C167.661427,226.285156 165.849162,224.489678 163.613216,224.489678 Z" id="Shape" fill="#3C3B5C"></path>
                <path d="M183.042433,215.666523 L172.518339,215.666523 C170.282394,215.666523 168.470129,217.462002 168.470129,219.677236 C168.470129,221.891953 170.281871,223.687949 172.518339,223.687949 L183.042433,223.687949 C185.278378,223.687949 187.090643,221.892471 187.090643,219.677236 C187.090643,217.462002 185.278378,215.666523 183.042433,215.666523 Z" id="Shape" fill="#3C3B5C"></path>
                <path d="M154.707571,215.666523 L144.183478,215.666523 C141.947532,215.666523 140.135267,217.462002 140.135267,219.677236 C140.135267,221.891953 141.94701,223.687949 144.183478,223.687949 L154.707571,223.687949 C156.943517,223.687949 158.755782,221.892471 158.755782,219.677236 C158.755782,217.462002 156.944039,215.666523 154.707571,215.666523 Z" id="Shape" fill="#3C3B5C"></path>
                <path d="M91.1680623,75.4489159 L82.6448265,73.7367675 C75.8236258,72.3662208 70.5231813,67.114873 69.140343,60.357373 L67.4121871,51.9125683 C66.6646081,48.2600196 63.5149551,45.708877 59.7535516,45.708877 C55.9916258,45.708877 52.8424951,48.2600196 52.0954386,51.9125683 L50.3672825,60.357373 C48.9844444,67.114873 43.684,72.3662208 36.8627992,73.7367675 L28.3395635,75.4489159 C24.6528655,76.1895704 22.0773489,79.3095313 22.0773489,83.0366113 C22.0773489,86.7636913 24.6523431,89.88417 28.3395635,90.6248242 L36.8627992,92.3369726 C43.684,93.707002 48.9844444,98.9583496 50.3672825,105.716367 L52.0954386,114.160654 C52.8430176,117.813203 55.9916258,120.364346 59.7535516,120.364346 C63.5149551,120.364346 66.6646081,117.813203 67.4121871,114.160654 L69.140343,105.71585 C70.5231813,98.9583496 75.8236258,93.707002 82.6448265,92.336455 L91.1680623,90.6243067 C94.8547603,89.8836524 97.4302767,86.7636913 97.4302767,83.0366113 C97.4302767,79.3095313 94.8547603,76.1895704 91.1680623,75.4489159 Z" id="Path" fill="#2196F3"></path>
                <path d="M91.1680623,75.4489159 L82.6448265,73.7367675 C75.8236258,72.3662208 70.5231813,67.114873 69.140343,60.357373 L67.4121871,51.9125683 C66.6646081,48.2600196 63.5149551,45.708877 59.7535516,45.708877 C55.9916258,45.708877 52.8424951,48.2600196 52.0954386,51.9125683 L50.3672825,60.357373 C48.9844444,67.114873 43.684,72.3662208 36.8627992,73.7367675 L28.3395635,75.4489159 C24.6528655,76.1895704 22.0773489,79.3095313 22.0773489,83.0366113 C22.0773489,86.7636913 24.6523431,89.88417 28.3395635,90.6248242 L36.8627992,92.3369726 C43.684,93.707002 48.9844444,98.9583496 50.3672825,105.716367 L52.0954386,114.160654 C52.8430176,117.813203 55.9916258,120.364346 59.7535516,120.364346 C63.5149551,120.364346 66.6646081,117.813203 67.4121871,114.160654 L69.140343,105.71585 C70.5231813,98.9583496 75.8236258,93.707002 82.6448265,92.336455 L91.1680623,90.6243067 C94.8547603,89.8836524 97.4302767,86.7636913 97.4302767,83.0366113 C97.4302767,79.3095313 94.8547603,76.1895704 91.1680623,75.4489159 Z M81.0368265,84.4759962 C71.0210449,86.4883399 63.2370292,94.1997363 61.2058712,104.122744 L59.7535516,111.217705 L58.3017543,104.122744 C56.2705966,94.1997363 48.4865808,86.4878222 38.4707992,84.4759962 L31.3095049,83.0366113 L38.4707992,81.5987792 C48.4871033,79.5864355 56.2705966,71.8745216 58.3017543,61.9515137 L59.7545966,54.8565528 L61.2058712,61.9515137 C63.2370292,71.8745216 71.0205225,79.5864355 81.0368265,81.5987792 L88.1981209,83.0376466 L81.0368265,84.4759962 Z" id="Shape" fill="#3C3B5C"></path>
                <path d="M17.8201715,114.773467 C16.4577076,113.801973 14.592156,113.763154 13.1931228,114.683926 C11.6128109,115.724258 10.9639688,117.812168 11.7042339,119.550195 C12.3483743,121.061006 13.8738324,122.065107 15.5382534,122.023184 C17.2340195,121.980742 18.7464172,120.867432 19.2824172,119.274844 C19.8304327,117.646025 19.2286082,115.777568 17.8201715,114.773467 Z" id="Shape" fill="#3C3B5C"></path>
                <path d="M46.3331774,138.779258 C45.3881248,137.354365 43.5419025,136.685137 41.8889748,137.144228 C40.2898557,137.587793 39.111805,138.976973 38.9430644,140.614072 C38.5653566,144.27956 43.2007643,146.436309 45.831657,143.843242 C47.1888967,142.504785 47.3801014,140.354766 46.3331774,138.779258 Z" id="Shape" fill="#3C3B5C"></path>
                <path d="M19.441232,150.47083 C17.6059805,150.868848 16.2487407,152.515264 16.2487407,154.382168 C16.2487407,156.017197 17.2930526,157.524385 18.8289591,158.116494 C20.5043509,158.762949 22.470729,158.212764 23.5437739,156.780107 C25.7232982,153.872353 23.0281481,149.691875 19.441232,150.47083 Z" id="Shape" fill="#3C3B5C"></path>
                <path d="M150.804593,140.490889 L148.768211,142.508926 C146.322253,144.932227 142.341435,144.932744 139.895478,142.508926 L124.158706,126.918437 C121.712748,124.495137 121.712748,120.551191 124.158706,118.12789 L126.19561,116.109853 C127.419111,114.897685 129.025544,114.292119 130.631977,114.292119 C132.238409,114.292119 133.845365,114.898203 135.067821,116.109853 L135.6383,116.675049 L150.234113,131.135664 L150.804593,131.70086 C153.251072,134.123643 153.251072,138.06707 150.804593,140.490889 Z" id="Path" fill="#2196F3"></path>
                <path d="M116.341778,242.597148 C114.971478,239.388164 110.222183,239.355039 108.866511,242.597148 C108.204086,244.18042 108.653887,246.066475 109.97299,247.180303 C111.234628,248.245478 113.071969,248.435947 114.52899,247.65751 C116.342823,246.687051 117.099805,244.478545 116.341778,242.597148 Z" id="Shape" fill="#3C3B5C"></path>
                <path d="M263.7982,4.16288087 C258.195275,-1.38762695 249.079618,-1.38762695 243.477216,4.16288087 L219.475283,27.9424903 C217.894448,29.5086817 217.894448,32.04792 219.475283,33.6135937 C221.056639,35.1797851 223.619095,35.1797851 225.19993,33.6135937 L249.201864,9.83398437 C251.647298,7.41120117 255.62655,7.41120117 258.073029,9.83398437 C260.518986,12.2572852 260.518986,16.1996777 258.073029,18.6234961 L153.096959,122.627715 L144.225271,113.838721 L214.272008,44.4413283 C215.852842,42.8751367 215.852842,40.3358984 214.272008,38.7702246 C212.690651,37.2040333 210.128195,37.2040333 208.547361,38.7702246 L138.237326,108.428477 C132.693435,105.001592 125.286604,105.668232 120.470963,110.43875 L118.434059,112.456787 C115.719579,115.145605 114.225466,118.720518 114.225466,122.523682 C114.225466,122.602353 114.229645,122.67999 114.231212,122.758662 C113.496694,122.381865 112.75016,122.011279 111.990043,121.65208 C92.33462,112.363623 80.9009982,117.653789 74.7704329,123.728603 C69.3367719,129.111934 64.124616,136.719815 58.606846,144.7754 C44.9900428,164.651953 29.5562728,187.182647 4.57115009,187.179541 C4.57115009,187.179541 4.57115009,187.179541 4.57062767,187.179541 C2.93389474,187.179541 1.45754386,188.156728 0.830643275,189.6546 C0.20374269,191.153506 0.550105264,192.878594 1.70778168,194.025547 L16.0126082,208.197871 C16.0434308,208.229443 16.0747758,208.260498 16.1066433,208.291035 L30.3398986,222.392451 C30.3513919,222.403838 30.3607953,222.416777 30.3722886,222.427647 C30.3837816,222.439033 30.3968421,222.44835 30.4078129,222.459736 L47.5472749,239.44044 C48.9922807,240.872578 51.2877816,241.011807 52.8989162,239.767549 L66.1693566,229.517432 C61.9189708,239.274815 59.7843742,248.107285 59.6365301,248.731485 C59.3152436,250.083398 59.7232515,251.503633 60.7147992,252.485478 L72.1604365,263.825097 C72.9351813,264.592666 73.9700896,265 75.023805,265 C75.5451774,265 76.0712515,264.900108 76.5722494,264.694629 C78.0851695,264.073534 79.0709708,262.611376 79.0704484,260.98877 C79.0683587,240.097764 95.3604599,225.828652 112.966963,213.520127 C114.793856,212.243262 115.229552,209.741289 113.940748,207.931318 C112.651945,206.121348 110.125536,205.68917 108.299688,206.966553 C91.3519532,218.813398 75.5106978,232.472285 71.7936999,252.117998 L68.0777466,248.436465 C69.7756024,242.290225 75.3153138,224.4079 84.4455984,215.362187 C85.9579961,213.863799 86.0327017,211.458096 84.6159064,209.870684 C83.1996336,208.283272 80.7813645,208.060713 79.0939572,209.363975 L50.7423782,231.263223 L38.9608265,219.590801 L47.2338244,211.394434 C48.8146589,209.828242 48.8146589,207.289004 47.2338244,205.72333 C45.6529903,204.157139 43.0900118,204.157139 41.5096999,205.72333 L33.2372242,213.91918 L26.3392281,207.085078 C27.4671267,206.585098 28.7183159,205.985225 30.1006315,205.251816 C38.3558675,200.87207 47.1376999,194.09749 56.2026823,185.116475 C57.7835167,183.550283 57.7835167,181.011045 56.2026823,179.445371 C54.6218478,177.87918 52.0588694,177.87918 50.4785574,179.445371 C35.1947212,194.587637 24.290308,199.473057 20.1099259,200.913994 L13.5112748,194.376465 C37.5132087,189.849209 52.7792825,167.565918 65.3058011,149.279883 C70.6020662,141.548301 75.6052555,134.245273 80.4956024,129.400225 C86.312195,123.63751 94.9101364,123.104922 106.077326,127.806602 C100.542838,128.755322 94.4504095,131.449316 88.5068694,137.337803 C86.9260352,138.903994 86.9260352,141.443232 88.5068694,143.008906 C90.0877038,144.575098 92.6506823,144.575098 94.2315167,143.008906 C105.294745,132.048154 116.821879,135.353926 122.696982,138.286523 L113.328476,147.568252 C111.747641,149.134443 111.747641,151.673682 113.328476,153.239355 C114.118893,154.022451 115.154846,154.414258 116.190799,154.414258 C117.226752,154.414258 118.262706,154.022969 119.053123,153.239355 L128.401778,143.977295 C129.267945,145.689443 130.172249,147.877246 130.742207,150.37249 C132.567532,158.361826 130.183743,165.692285 123.65614,172.159424 C122.075306,173.725615 122.075306,176.264853 123.65614,177.830527 C124.446557,178.613623 125.482511,179.00543 126.518464,179.00543 C127.554417,179.00543 128.59037,178.61414 129.380788,177.830527 C135.323283,171.943076 138.042464,165.907598 139.000577,160.42541 C143.745692,171.485537 143.20917,180.003838 137.392577,185.767588 C133.024125,190.095576 126.66892,194.50793 120.534176,198.656318 C118.687953,199.904717 118.212031,202.399961 119.472624,204.2296 C120.732694,206.058721 123.251789,206.530234 125.098012,205.281318 C131.548819,200.91917 138.254043,196.257344 143.116702,191.439727 C149.246745,185.365947 154.587415,174.038232 145.212117,154.56539 C144.848515,153.810244 144.473419,153.068037 144.091532,152.338252 C144.171462,152.339287 144.251914,152.343945 144.331844,152.343945 C148.011751,152.343945 151.692179,150.956318 154.49338,148.181065 L156.530285,146.16251 C161.344359,141.39251 162.017232,134.054805 158.557786,128.56123 L263.7982,24.2951172 C269.400599,18.7446094 269.400599,9.71338867 263.7982,4.16288087 Z M150.804593,140.490889 L148.768211,142.508926 C146.322253,144.932227 142.341435,144.932744 139.895478,142.508926 L124.158706,126.918437 C121.712748,124.495137 121.712748,120.551191 124.158706,118.12789 L126.19561,116.109853 C127.419111,114.897685 129.025544,114.292119 130.631977,114.292119 C132.238409,114.292119 133.845365,114.898203 135.067821,116.109853 L135.6383,116.675049 L150.234113,131.135664 L150.804593,131.700859 C153.251072,134.123643 153.251072,138.06707 150.804593,140.490889 Z" id="Shape" fill="#3C3B5C"></path>
            </g>
        </g>
    </g>
</svg>