<?xml version="1.0" encoding="UTF-8"?>
<svg width="300px" height="300px" viewBox="0 0 300 300" version="1.1" xmlns="http://www.w3.org/2000/svg" xmlns:xlink="http://www.w3.org/1999/xlink">
    <!-- Generator: Sketch 53 (72520) - https://sketchapp.com -->
    <title>Beauty Services</title>
    <desc>Created with Sketch.</desc>
    <g id="Beauty-Services" stroke="none" stroke-width="1" fill="none" fill-rule="evenodd">
        <g>
            <rect id="Rectangle-3" x="0" y="0" width="300" height="300"></rect>
            <g id="e2e_beauty-copy" transform="translate(7.500000, 10.000000)" fill-rule="nonzero">
                <polygon id="Shape" fill="#F5F6F7" points="43.075 76.625 67.225 29.9 122.225 15.8 158.25 24.4 175.5 6.325 211.875 9.95 227.75 19.65 238.675 33.55 243.875 57.9 243.875 76.625 230.475 97.375 240.975 123.275 243.875 154.1 228.2 192.75 201.875 221.8 187.5 233.9 185.35 246.225 188.525 250.6 176.275 264.325 103.775 272.975 104.575 236.6 90.575 231.175 73.875 234.875 39.15 242.2 36 214.575 27.25 179.5 18.175 154.1 38.625 94.6"></polygon>
                <path d="M52.65,60.75 C52.6284512,77.8918042 51.1059705,94.998802 48.1,111.875 C44.9719707,127.868224 39.3357657,143.266539 31.4,157.5 C31.4,157.5 39.9,171.025 31.4,181.5 C34.0145735,182.10548 36.161491,183.962998 37.1366247,186.463342 C38.1117585,188.963684 37.7892975,191.78426 36.275,194 C36.275,194 47.1,194.5 42.025,207.725 C36.95,220.95 35.85,254.2 57.5,238.325 C57.5,238.325 40.675,254.925 29.35,235.375 L30.35,209.65 L20.85,200.3 L20.85,190.925 L16.675,186.325 L20.4,170.8 L7.625,164.25 L4.575,155 L30,117.075 L43.15,59.75 L52.625,53.425 L52.65,60.75 Z" id="Shape" fill="#E5E5E5"></path>
                <path d="M103.75,279.1 L103.1,279.1 C102.047427,278.934295 101.104471,278.355475 100.480266,277.491913 C99.856062,276.628353 99.602206,275.551433 99.775,274.5 C103.95,249 99.425,239.975 94.9,237 C87.4,231.825 74.05,239.5 73.925,239.5 L73.45,239.75 C52.1,248.875 37.95,250.1 30.175,243.45 C21.05,235.65 24.825,220.675 26.45,214.3 L26.575,213.75 C27.4,210.425 25.75,208.75 21.575,205.95 C20.059609,205.06927 18.7340173,203.896631 17.675,202.5 C15.7,199.7 16.825,196.675 18.725,194.125 C17.565737,193.380689 16.5842466,192.390664 15.85,191.225 C14.1088209,188.119045 14.1088209,184.330955 15.85,181.225 C16.9526275,179.079883 17.5511569,176.711416 17.6,174.3 C10.0565646,172.814909 3.7636913,167.639725 0.85,160.525 C0.36383141,159.177577 0.630411967,157.673301 1.55,156.575 C21.75,132.5 27.425,114.325 31.3,87.2 C35.75,56.05 50.575,49.7 51.3,49.55 C53.3710677,48.7146693 55.7271693,49.7164323 56.5625,51.7875 C57.3978307,53.8585677 56.3960678,56.2146693 54.325,57.05 C53.975,57.225 43,62.65 39.325,88.4 C35.425,115.65 29.325,135.3 9.45,159.75 C11.9495489,163.789969 16.236526,166.384474 20.975,166.725 C21.931534,166.827482 22.8190935,167.271262 23.475,167.975 C24.275,168.825 28,173.625 23.15,184.525 C22.55,185.9 22.525,186.725 22.7,187.025 C23.7541556,187.921738 25.0910465,188.417539 26.475,188.425 C28.157897,188.522414 29.601816,189.658207 30.0928532,191.270818 C30.5838905,192.883429 30.0180122,194.631202 28.675,195.65 C27.4957312,196.550078 26.4072267,197.563224 25.425,198.675 L25.95,199.025 C29.475,201.325 36.775,206.1 34.425,215.5 L34.275,216.05 C33.125,220.575 30.1,232.6 35.425,237.15 C38.3,239.65 46.65,242.15 70.1,232.15 C72.4,230.85 88.175,222.35 99.45,230 C108.975,236.475 111.675,251.375 107.725,275.525 C107.507855,277.557158 105.793726,279.098795 103.75,279.1 L103.75,279.1 Z" id="Shape" fill="#3C3B5C"></path>
                <path d="M175.5,6.325 C175.5,6.325 227.15,37.9 190,81.5 C190,81.5 204.5,56.925 163.2,20.4 L175.5,6.325 Z" id="Shape" fill="#E5E5E5"></path>
                <path d="M225.175,97.825 C223.199118,97.7782362 221.549539,96.303796 221.282219,94.3455225 C221.0149,92.3872488 222.208943,90.5246315 224.1,89.95 C224.4,89.95 243.55,84.25 243.375,69.225 C243.125,47.85 235.5,11.725 187.225,8.975 C185.375,8.85 170.1,8.3 167.225,27.425 C167.015107,28.8451308 166.063526,30.0454087 164.72871,30.573701 C163.393894,31.1019932 161.878632,30.8780395 160.75371,29.986201 C159.628787,29.0943625 159.065106,27.6701307 159.275,26.25 C163.325,-0.8 187.5,0.925 187.775,0.95 C244.5,4.05 251.175,49.65 251.4,69.1 C251.65,90.375 227.275,97.375 226.25,97.65 C225.901321,97.7570735 225.539636,97.8159525 225.175,97.825 L225.175,97.825 Z" id="Shape" fill="#3C3B5C"></path>
                <path d="M52.65,48.9 L67.225,30 L77.625,25.25 C77.625,25.25 63.3,95.25 125.75,124.075 L127.8,128.225 L98.65,128.225 L68.675,107.5 L53.325,68.875 L52.65,48.9 Z" id="Shape" fill="#E5E5E5"></path>
                <path d="M132.65,133.075 C132.145389,133.077192 131.644919,132.983885 131.175,132.8 C130.176373,132.412258 129.120413,132.192619 128.05,132.15 C92.35,136.2 73.2,120.85 63.425,107.15 C46.575,83.675 46.625,51.3 51.375,41.275 C59.175,24.775 106.85,-2.875 159.875,20.7 C177.1,28.35 188.3,39.125 193.15,52.7 C197.244448,65.2023222 196.476767,78.7884955 191,90.75 C190.012791,92.7313215 187.606322,93.5372087 185.625,92.5499998 C183.643679,91.562791 182.837791,89.1563215 183.825,87.175 C183.95,86.9 191.325,71.425 185.55,55.325 C181.425,43.925 171.675,34.75 156.6,28.05 C107.725,6.325 64.65,31.925 58.6,44.725 C55.15,52.1 54.825,81.45 70,102.5 C82.5,119.8 101.725,127.075 127.5,124.1 L127.825,124.1 C130.033539,124.092273 132.223073,124.508115 134.275,125.325 C136.046764,126.04985 137.062871,127.922293 136.70496,129.802839 C136.347049,131.683385 134.71416,133.051665 132.8,133.075 L132.65,133.075 Z" id="Shape" fill="#3C3B5C"></path>
                <path d="M178.075,268.325 C176.981529,268.33022 175.933592,267.887555 175.175,267.1 C169.17546,261.336273 165.873454,253.317115 166.075,245 C166.785614,236.679541 170.041521,228.779819 175.4,222.375 C150.15,218.325 137.075,206.1 130.4,196.075 C129.17807,194.224846 129.687346,191.73443 131.5375,190.5125 C133.387654,189.29057 135.87807,189.799846 137.1,191.65 C146.3,205.525 162.1,213.5 183.925,215.35 C185.53099,215.473741 186.906074,216.548699 187.413799,218.077336 C187.921525,219.605973 187.462823,221.290011 186.25,222.35 C186.25,222.35 174.55,232.95 174.075,245.375 C173.985832,251.523505 176.479831,257.427482 180.95,261.65 C182.0831,262.8058 182.40798,264.530548 181.773035,266.019383 C181.138091,267.50822 179.668479,268.467668 178.05,268.45 L178.075,268.325 Z" id="Shape" fill="#3C3B5C"></path>
                <path d="M187.85,252.5 C186.506049,252.508697 185.24756,251.841885 184.5,250.725 C181.596522,246.617867 180.679654,241.428391 182,236.575 C184.9,226.1 197.8,219.3 199.95,218.225 C202.45,216.5 233,194.75 239.225,149.3 C239.80206,145.15982 240.027865,140.978246 239.9,136.8 C239.855342,135.366472 240.578854,134.018012 241.797997,133.262573 C243.017139,132.507134 244.546696,132.459484 245.810497,133.137573 C247.074298,133.815662 247.880342,135.116472 247.925,136.55 C248.060954,141.154565 247.810073,145.762415 247.175,150.325 C240.2,201.325 205.6,224.075 204.125,225.025 L203.675,225.275 C200.4,226.85 191.475,232.3 189.725,238.675 C189.070165,241.276916 189.631061,244.035418 191.25,246.175 C192.137692,247.415551 192.242518,249.052994 191.520258,250.39661 C190.797997,251.740227 189.374409,252.556072 187.85,252.5 Z" id="Shape" fill="#3C3B5C"></path>
                <path d="M232.5,106.625 C231.196556,106.625777 229.97448,105.991417 229.225,104.925 C223.372797,96.5974342 215.58199,89.8190885 206.525,85.175 C204.495353,84.2154052 203.627905,81.7921465 204.5875,79.7625 C205.547095,77.7328535 207.970353,76.8654052 210,77.825 C220.385776,83.0615585 229.310561,90.7923645 235.975,100.325 C236.857448,101.576287 236.948167,103.221534 236.208641,104.562256 C235.469116,105.902979 234.02912,106.703903 232.5,106.625 L232.5,106.625 Z" id="Shape" fill="#3C3B5C"></path>
                <polygon id="Shape" fill="#F5F6F7" points="149.95 165.975 141.475 144.55 275.35 99 279 108.275"></polygon>
                <path d="M150,170 C148.365984,170.000034 146.894099,169.012192 146.275,167.5 L137.75,146.025 C137.352291,144.995556 137.394718,143.847968 137.867356,142.850702 C138.339994,141.853436 139.20138,141.09398 140.25,140.75 L274.125,95.2 C276.14417,94.5323798 278.334285,95.550783 279.125,97.525 L282.775,106.775 C283.548468,108.769953 282.62593,111.021384 280.675,111.9 L151.575,169.625 C151.080591,169.854732 150.544888,169.982281 150,170 Z M146.75,147 L152.125,160.6 L273.85,106.175 L273,104.05 L146.75,147 Z" id="Shape" fill="#3C3B5C"></path>
                <polygon id="Rectangle-path" fill="#F5F6F7" transform="translate(124.425414, 163.684291) rotate(-111.560000) translate(-124.425414, -163.684291) " points="112.912914 140.096791 135.937914 140.096791 135.937914 187.271791 112.912914 187.271791"></polygon>
                <path d="M106.7,187.075 C105.065984,187.075034 103.594099,186.087192 102.975,184.575 L94.525,163.175 C93.721404,161.117925 94.7254215,158.797529 96.775,157.975 L140.65,140.65 C142.707075,139.846404 145.027471,140.850421 145.85,142.9 L154.3,164.3 C155.103596,166.357075 154.099579,168.677471 152.05,169.5 L108.175,186.775 C107.706572,186.966861 107.206157,187.06864 106.7,187.075 L106.7,187.075 Z M103.45,163.9 L108.975,177.85 L145.375,163.475 L139.875,149.525 L103.45,163.9 Z" id="Shape" fill="#3C3B5C"></path>
                <path d="M106.7,183.05 C106.7,183.05 81.7,199.075 58.3,189.8 C58.3,189.8 65.6,169.8 98.3,161.65 L106.7,183.05 Z" id="Shape" fill="#2196F3"></path>
                <path d="M74.075,196.725 C68.1760255,196.766265 62.3226955,195.688913 56.825,193.55 C54.8513675,192.759437 53.841033,190.563058 54.525,188.55 C54.85,187.65 62.95,166.475 97.275,157.875 C99.2477502,157.405368 101.261802,158.476673 101.975,160.375 L110.425,181.775 C111.121654,183.560461 110.46274,185.589496 108.85,186.625 C98.3211255,192.929264 86.342868,196.408211 74.075,196.725 Z M64.075,187.475 C79.675,191.45 95.4,184.575 101.575,181.3 L95.725,166.475 C76.4,172.125 67.5,182.05 64.075,187.5 L64.075,187.475 Z" id="Shape" fill="#3C3B5C"></path>
            </g>
        </g>
    </g>
</svg>