<?xml version="1.0" encoding="UTF-8"?>
<svg width="300px" height="300px" viewBox="0 0 300 300" version="1.1" xmlns="http://www.w3.org/2000/svg" xmlns:xlink="http://www.w3.org/1999/xlink">
    <!-- Generator: Sketch 53 (72520) - https://sketchapp.com -->
    <title>Car Rental</title>
    <desc>Created with Sketch.</desc>
    <g id="Car-Rental" stroke="none" stroke-width="1" fill="none" fill-rule="evenodd">
        <g>
            <rect id="Rectangle-3" x="0" y="0" width="300" height="300"></rect>
            <g id="Group-12" transform="translate(5.000000, 52.500000)">
                <g id="Group-11" transform="translate(0.000000, 47.500000)">
                    <path d="M283.192363,122.5 L274.115702,122.5 C272.86338,122.5 271.84668,121.483597 271.84668,120.231639 C271.84668,118.97968 272.86338,117.963277 274.115702,117.963277 L283.192363,117.963277 C284.653692,117.963277 285.461388,117.155818 285.461388,115.694916 L285.461388,97.546894 C285.461388,96.0859923 284.653692,95.2785327 283.192363,95.2785327 L280.92334,95.2785327 C279.825078,95.2785327 278.88088,94.489193 278.690567,93.4093715 L275.05537,72.9929877 C273.430917,64.4450145 266.83172,57.8528375 258.25916,56.2243285 L221.988769,49.8767675 C221.539609,49.7997587 221.13123,49.5908157 220.799883,49.2731547 L193.116211,22.5046801 C181.09877,10.9171254 165.06041,4.53785495 147.95041,4.53785495 L15.4306055,4.53785495 C13.9692774,4.53785495 13.161582,5.34531452 13.161582,6.80621617 L13.161582,11.3435049 C13.161582,12.8044065 13.9692774,13.6118661 15.4306055,13.6118661 L21.330293,13.6118661 C23.9034765,13.6118661 26.1815625,14.8915706 27.4253907,17.0325276 C28.6369335,19.1151618 28.6188085,21.651355 27.3846092,23.810998 C26.4766602,25.4446032 25.401621,27.3318842 24.2710742,29.3188237 C22.6233984,32.2179772 20.8494141,35.3351337 19.233457,38.2931765 C15.494043,44.5405127 13.6152734,51.777072 13.6152734,59.8896062 L13.6152734,93.0096053 C13.6152734,94.261564 12.5985742,95.2779665 11.34625,95.2779665 L6.80763673,95.2779665 C5.3463086,95.2779665 4.53861328,96.085426 4.53861328,97.5463277 L4.53861328,115.69435 C4.53861328,117.155252 5.3463086,117.962711 6.80763673,117.962711 L277.684237,117.962711 C278.936562,117.962711 279.953262,118.979114 279.953262,120.231072 C279.953262,121.483031 278.936562,122.499434 277.684237,122.499434 L6.80763673,122.499434 C2.86375,122.5 0,119.637086 0,115.69435 L0,97.5463277 C0,93.603592 2.86375,90.7406777 6.80763673,90.7406777 L9.07666015,90.7406777 L9.07666015,59.88904 C9.07666015,50.9418667 11.1689649,42.9159675 15.2986328,36.0378387 C16.8777734,33.1341552 18.665918,29.9898192 20.3271875,27.0725457 C21.4481055,25.0991962 22.5146484,23.2294686 23.4316602,21.5828399 C24.030918,20.530198 23.7312891,19.7046187 23.4996289,19.3099487 C23.0776563,18.5840278 22.2654297,18.1485885 21.330293,18.1485885 L15.4306055,18.1485885 C11.4232812,18.1485885 8.62296875,15.3490933 8.62296875,11.3429386 L8.62296875,6.80564992 C8.62296875,2.79949522 11.4232812,0 15.4306055,0 L147.95041,0 C166.239668,0 183.399512,6.8328295 196.269961,19.2369036 L223.454629,45.5246395 L259.075918,51.7583862 C269.527812,53.7453255 277.53793,61.7536712 279.520917,72.1657097 L282.829297,90.7401115 C287.13625,90.7401115 290,93.6030258 290,97.5457615 L290,115.693784 C290,119.637086 287.140783,122.5 283.192363,122.5 Z" id="Shape" stroke="#3C3B5C" stroke-width="2.5" fill="#3C3B5C" fill-rule="nonzero"></path>
                    <g id="Group-4-Copy" transform="translate(35.000000, 87.500000)" fill-rule="nonzero">
                        <circle id="Oval" fill="#2196F3" cx="29.3" cy="31.275" r="24.975"></circle>
                        <path d="M29.3,60.175 C17.6087714,60.1851135 7.06311247,53.1502702 2.58206347,42.351885 C-1.89898551,31.5534995 0.567401158,19.118996 8.83077328,10.8484694 C17.0941454,2.57794285 29.5265098,0.100795969 40.3287693,4.57249807 C51.1310285,9.04420018 58.1749958,19.583767 58.175,31.275 C58.161242,47.22057 45.2455523,60.1474422 29.3,60.175 L29.3,60.175 Z M29.3,10.175 C17.6605989,10.175 8.225,19.6105989 8.225,31.25 C8.225,42.889401 17.6605989,52.325 29.3,52.325 C40.939401,52.325 50.375,42.889401 50.375,31.25 C50.3474633,19.6260741 40.9239505,10.2137398 29.3,10.2 L29.3,10.175 Z" id="Shape" fill="#3C3B5C"></path>
                        <path d="M15,31.275 C15.0055019,22.7959129 19.5830287,14.9787585 26.975,10.825 C16.5011378,11.9248029 8.5486551,20.7560539 8.5486551,31.2875 C8.5486551,41.818946 16.5011378,50.650197 26.975,51.75 C19.5752313,47.5918585 14.9964677,39.763033 15,31.275 Z" id="Shape" fill="#4DABF5"></path>
                        <circle id="Oval" fill="#2196F3" cx="201.45" cy="31.275" r="24.975"></circle>
                        <path d="M201.45,60.175 C185.488971,60.175 172.55,47.2360292 172.55,31.275 C172.55,15.3139707 185.488971,2.375 201.45,2.375 C217.411029,2.375 230.35,15.3139707 230.35,31.275 C230.336216,47.2303162 217.405316,60.1612157 201.45,60.175 L201.45,60.175 Z M201.45,10.175 C192.925958,10.175 185.241249,15.3097589 181.979239,23.1849467 C178.717229,31.0601345 180.520317,40.1248677 186.547725,46.1522755 C192.575132,52.1796832 201.639866,53.9827707 209.515053,50.7207612 C217.390241,47.4587515 222.525,39.7740417 222.525,31.25 C222.497463,19.6260741 213.073951,10.2137398 201.45,10.2 L201.45,10.175 Z" id="Shape" fill="#3C3B5C"></path>
                        <path d="M187.125,31.275 C187.130502,22.7959129 191.708029,14.9787585 199.1,10.825 C188.626138,11.9248029 180.673655,20.7560539 180.673655,31.2875 C180.673655,41.818946 188.626138,50.650197 199.1,51.75 C191.700231,47.5918585 187.121468,39.763033 187.125,31.275 Z" id="Shape" fill="#4DABF5"></path>
                    </g>
                    <path d="M56.2216687,2.5 L44.8801952,33.936232 C43.0059257,39.1313217 45.6979825,44.8621697 50.8930722,46.7364395 C51.981443,47.1290987 53.1297017,47.3298972 54.2867375,47.3298972 L222.033114,47.3298972" id="Path-6" stroke="#3C3B5C" stroke-width="7.5"></path>
                    <path d="M131.260853,5.1617122 L131.260853,48.6822852" id="Path-7" stroke="#3C3B5C" stroke-width="7.5"></path>
                </g>
                <path d="M15.011875,5.03123223 L10.00375,5.03123223 C8.621875,5.03123223 7.5,3.90404028 7.5,2.51561613 C7.5,1.12719194 8.621875,0 10.00375,0 L15.011875,0 C16.39375,0 17.515625,1.12719194 17.515625,2.51561613 C17.51625,3.90404028 16.399375,5.03123223 15.011875,5.03123223 Z" id="Shape" stroke="#3C3B5C" stroke-width="2.5" fill="#3C3B5C" fill-rule="nonzero"></path>
                <path d="M90.105,5.03123223 L25.00375,5.03123223 C23.621875,5.03123223 22.5,3.90404028 22.5,2.51561613 C22.5,1.12719194 23.621875,0 25.00375,0 L90.105625,0 C91.4875,0 92.609375,1.12719194 92.609375,2.51561613 C92.609375,3.90404028 91.4925,5.03123223 90.105,5.03123223 Z" id="Shape" stroke="#3C3B5C" stroke-width="2.5" fill="#3C3B5C" fill-rule="nonzero"></path>
                <path d="M115.105625,20.0312322 L50.00375,20.0312322 C48.621875,20.0312322 47.5,18.9040403 47.5,17.5156161 C47.5,16.127192 48.621875,15 50.00375,15 L115.105625,15 C116.4875,15 117.609375,16.127192 117.609375,17.5156161 C117.609375,18.9040403 116.4925,20.0312322 115.105625,20.0312322 Z" id="Shape" stroke="#3C3B5C" stroke-width="2.5" fill="#3C3B5C" fill-rule="nonzero"></path>
            </g>
        </g>
    </g>
</svg>