<?xml version="1.0" encoding="UTF-8"?>
<svg width="300px" height="300px" viewBox="0 0 300 300" version="1.1" xmlns="http://www.w3.org/2000/svg" xmlns:xlink="http://www.w3.org/1999/xlink">
    <!-- Generator: Sketch 53 (72520) - https://sketchapp.com -->
    <title>Food</title>
    <desc>Created with Sketch.</desc>
    <g id="Food" stroke="none" stroke-width="1" fill="none" fill-rule="evenodd">
        <g>
            <rect id="Rectangle-3-Copy-5" x="0" y="0" width="300" height="300"></rect>
            <g id="dish" transform="translate(20.000000, 20.000000)" fill-rule="nonzero">
                <path d="M150.995,127.083667 L147.879333,196.733333 C147.46225,200.620875 148.72325,204.501917 151.346,207.402 C156.986375,213.571583 166.560875,214.000583 172.730458,208.360208 C173.064125,208.05525 173.383708,207.735667 173.688667,207.402 C176.252917,204.58425 177.51175,200.816958 177.155333,197.023667 L174.022333,127.075 C180.035375,123.890542 144.973833,123.900833 150.995,127.083667 Z" id="Path" fill="#2196F3"></path>
                <path d="M184.114667,87.6286668 L181.332667,78.4723332 C177.798833,68.07125 166.502375,62.5045416 156.101292,66.0383749 C150.250208,68.0262916 145.65525,72.62125 143.667333,78.4723332 L140.885333,87.6286668 C138.54425,95.3506668 138.052958,103.515208 139.451,111.462 C140.726083,118.152667 144.973833,123.900833 150.995,127.083667 L147.879333,196.733333 C147.46225,200.620875 148.72325,204.501917 151.346,207.402 C156.986375,213.571583 166.560875,214.000583 172.730458,208.360208 C173.064125,208.05525 173.383708,207.735667 173.688667,207.402 C176.252917,204.58425 177.51175,200.816958 177.155333,197.023667 L174.022333,127.075 C180.035375,123.890542 184.276083,118.146167 185.549,111.462 C186.947042,103.515208 186.45575,95.3506668 184.114667,87.6286668 Z M177.012333,109.954 C176.074167,114.76075 172.648667,118.704625 168.020667,120.306333 C166.264042,120.966625 165.1325,122.682625 165.217,124.557333 L168.510333,197.708333 C168.662,199.143208 168.188583,200.57375 167.210333,201.634333 C164.601125,204.217542 160.398875,204.217542 157.789667,201.634333 C156.762667,200.488167 156.296292,198.9455 156.515667,197.422333 L159.783,124.557333 C159.8675,122.682625 158.735958,120.966625 156.979333,120.306333 C152.351333,118.704625 148.925833,114.76075 147.987667,109.954 C146.8285,103.3565 147.236917,96.5786249 149.179333,90.168 L151.961333,81.0073332 C154.113917,75.1871249 160.577083,72.2139168 166.397833,74.3665 C169.475042,75.5045416 171.900625,77.9306668 173.038667,81.0073332 L175.820667,90.168 C177.760917,96.5791668 178.169333,103.3565 177.012333,109.954 Z" id="Shape" fill="#3C3B5C"></path>
                <path d="M86.5756668,123.040667 L82.8793332,196.963 C82.4860832,205.037625 88.7130832,211.902708 96.7877084,212.295958 C104.862333,212.689208 111.727417,206.462208 112.120667,198.387583 C112.143958,197.913083 112.143958,197.438042 112.120667,196.963542 L108.424333,123.041208 L86.5756668,123.040667 Z" id="Shape" fill="#2196F3"></path>
                <path d="M117,65 C114.606917,65 112.666667,66.94025 112.666667,69.3333332 L112.666667,106.539333 L100.936333,118.269667 C100.068583,119.134167 99.6070832,120.326375 99.6666668,121.55 L103.458333,197.383333 C103.548792,199.018625 102.955125,200.618167 101.820333,201.799 C99.4483749,204.192083 95.5852084,204.209417 93.1915832,201.836917 C93.1785832,201.824458 93.1661249,201.811458 93.1536668,201.799 C92.0183332,200.618167 91.4252084,199.018625 91.5156668,197.383333 L95.3333332,121.55 C95.394,120.326917 94.9341249,119.13525 94.068,118.269667 L82.3333332,106.539333 L82.3333332,69.3333332 C82.3333332,66.94025 80.3930832,65 78,65 C75.6069168,65 73.6666668,66.94025 73.6666668,69.3333332 L73.6666668,108.333333 C73.6666668,109.48275 74.1238332,110.5845 74.9363332,111.397 L86.5756668,123.040667 L82.8793332,196.963 C82.4860832,205.037625 88.7130832,211.902708 96.7877084,212.295958 C104.862333,212.689208 111.727417,206.462208 112.120667,198.387583 C112.143958,197.913083 112.143958,197.438042 112.120667,196.963542 L108.424333,123.041208 L120.063667,111.397542 C120.876167,110.585042 121.333333,109.483292 121.333333,108.333875 L121.333333,69.3338749 C121.333333,66.94025 119.393083,65 117,65 Z" id="Shape" fill="#3C3B5C"></path>
                <path d="M91,65 C88.6069168,65 86.6666668,66.94025 86.6666668,69.3333332 L86.6666668,104 C86.6666668,106.393083 88.6069168,108.333333 91,108.333333 C93.3930832,108.333333 95.3333332,106.393083 95.3333332,104 L95.3333332,69.3333332 C95.3333332,66.94025 93.3930832,65 91,65 Z" id="Shape" fill="#3C3B5C"></path>
                <path d="M104,65 C101.606917,65 99.6666668,66.94025 99.6666668,69.3333332 L99.6666668,104 C99.6666668,106.393083 101.606917,108.333333 104,108.333333 C106.393083,108.333333 108.333333,106.393083 108.333333,104 L108.333333,69.3333332 C108.333333,66.94025 106.393083,65 104,65 Z" id="Shape" fill="#3C3B5C"></path>
                <path d="M130,0 C58.2031668,0 0,58.2031668 0,130 C0,201.796833 58.2031668,260 130,260 C201.796833,260 260,201.796833 260,130 C259.91875,58.23675 201.76325,0.08125 130,0 Z M130,251.333333 C62.9893332,251.333333 8.66666668,197.010667 8.66666668,130 C8.66666668,62.9893332 62.9893332,8.66666668 130,8.66666668 C197.010667,8.66666668 251.333333,62.9893332 251.333333,130 C251.256958,196.978708 196.978708,251.256958 130,251.333333 Z" id="Shape" fill="#3C3B5C"></path>
                <path d="M144.066542,211.343167 C143.834167,208.961458 141.714625,207.218917 139.332375,207.451292 C139.276583,207.456708 139.220792,207.463208 139.165,207.470792 L139.182333,207.466458 C133.081542,208.174958 126.918458,208.174958 120.817667,207.466458 C118.43975,207.1875 116.286625,208.888875 116.007667,211.266792 C115.728708,213.644708 117.430083,215.797833 119.808,216.076792 C126.573958,216.867083 133.408708,216.867083 140.174667,216.076792 C142.556375,215.844958 144.298917,213.725417 144.066542,211.343167 Z" id="Shape" fill="#3C3B5C"></path>
                <path d="M196.3,74.1606668 C194.762208,72.3271251 192.028958,72.0871668 190.195417,73.6255 C190.189458,73.6303749 190.1835,73.6357916 190.177,73.6406668 C188.347792,75.1833332 188.114875,77.9165832 189.657,79.7463332 C215.784292,110.762167 213.785542,156.624542 185.059333,185.25 C183.363917,186.939458 183.359042,189.684083 185.0485,191.3795 C186.737958,193.074917 189.482583,193.079792 191.178,191.390333 C223.102208,159.587458 225.328458,108.626375 196.3,74.1606668 Z" id="Shape" fill="#3C3B5C"></path>
                <g id="Group" transform="translate(96.416668, 43.333332)" fill="#3C3B5C">
                    <path d="M4.54567579,13.9446669 C4.54296632,13.9446669 4.54025684,13.944125 4.53754737,13.944125 C4.53321221,13.944125 4.52887705,13.9446669 4.524,13.9446669 L4.54567579,13.9446669 Z" id="Shape"></path>
                    <path d="M54.0236668,2.42233333 C37.0884584,-1.636375 19.3272083,-0.545458332 3.016,5.55533332 C0.775666668,6.397625 -0.356958332,8.896875 0.485333332,11.1366667 C1.12016667,12.8250417 2.73433333,13.9425 4.53754168,13.944125 C5.05591668,13.9414167 5.56941668,13.846625 6.05366668,13.663 C20.7425833,8.16995832 36.7369168,7.189 51.987,10.8463333 C54.3134584,11.4085833 56.6550832,9.979125 57.2173332,7.65266668 C57.7795832,5.32620832 56.3501249,2.98458332 54.0236668,2.42233333 Z" id="Shape"></path>
                </g>
                <path d="M74.7456668,185.033333 C60.1374584,170.450042 51.9501668,150.641833 52,130 C51.9572084,113.508417 57.1810416,97.4339168 66.911,84.1186668 C68.3491249,82.2055 67.964,79.4890416 66.0508332,78.0509168 C64.1376668,76.6127916 61.4212084,76.9979168 59.9830832,78.9110832 C59.9576251,78.9452084 59.9327084,78.9793332 59.9083332,79.014 C34.8546249,113.4575 38.5412084,161.000125 68.6053332,191.169333 C70.2996668,192.86475 73.0480832,192.865833 74.7435,191.1715 C76.4389168,189.477167 76.44,186.72875 74.7456668,185.033333 Z" id="Shape" fill="#3C3B5C"></path>
            </g>
        </g>
    </g>
</svg>