<?xml version="1.0" encoding="UTF-8"?>
<svg width="300px" height="300px" viewBox="0 0 300 300" version="1.1" xmlns="http://www.w3.org/2000/svg" xmlns:xlink="http://www.w3.org/1999/xlink">
    <!-- Generator: Sketch 53 (72520) - https://sketchapp.com -->
    <title>Appliance Repair</title>
    <desc>Created with Sketch.</desc>
    <g id="Appliance-Repair" stroke="none" stroke-width="1" fill="none" fill-rule="evenodd">
        <g>
            <rect id="Rectangle-3-Copy" x="0" y="0" width="300" height="300"></rect>
            <g id="e2e_appliances-copy" transform="translate(32.500000, 22.500000)" fill-rule="nonzero">
                <polygon id="Shape" fill="#F5F6F7" points="3.575 3.625 3.575 251.4 231.475 251.4 231.475 94.775 227.55 90.85 135.6 89.55 135.9 7.5 132 3.625"></polygon>
                <polygon id="Shape" fill="#E5E5E5" points="3.575 7.5 3.575 247.65 7.825 251.4 28.05 251.4 28.05 3.625 8 3.625"></polygon>
                <path d="M135.9,36.625 C134.962517,36.634564 134.060945,36.2649192 133.4,35.6 C133.235236,35.445032 133.092264,35.2684205 132.975,35.075 C132.843432,34.8884867 132.734344,34.6870928 132.65,34.475 C132.557171,34.2672643 132.490009,34.048988 132.45,33.825 C132.424174,33.600741 132.424174,33.374259 132.45,33.15 C132.452489,32.1181472 132.916708,31.1415783 133.715319,30.4881685 C134.513932,29.8347585 135.563087,29.5731123 136.575,29.775 C136.790752,29.8157635 137.000664,29.8829355 137.2,29.975 C137.411995,30.0595535 137.613365,30.168629 137.8,30.3 C137.990196,30.421792 138.166275,30.5643325 138.325,30.725 C139.016518,31.3725577 139.408927,32.2776205 139.408927,33.225 C139.408927,34.1723795 139.016518,35.0774423 138.325,35.725 C138.166003,35.8853663 137.989958,36.0278785 137.8,36.15 L137.2,36.45 L136.575,36.65 L135.9,36.625 Z" id="Shape" fill="#3C3B5C"></path>
                <path d="M139.35,130.95 L0,130.95 L0,7.5 C0.0062942799,5.52872815 0.804172877,3.64260642 2.21443564,2.2652498 C3.6246984,0.88789317 5.52912885,0.134759708 7.5,0.175 L132,0.175 C136.04955,0.174976575 139.336226,3.4504736 139.35,7.5 L139.35,21.125 C139.35,23.0303824 137.805383,24.575 135.9,24.575 C133.994618,24.575 132.45,23.0303824 132.45,21.125 L132.45,7.5 C132.45,7.26527897 132.259721,7.075 132.025,7.075 L7.5,7.075 C7.26527898,7.075 7.075,7.26527897 7.075,7.5 L7.075,124.05 L132.5,124.05 L132.5,45 C132.5,43.0946175 134.044617,41.55 135.95,41.55 C137.855382,41.55 139.4,43.0946175 139.4,45 L139.35,130.95 Z" id="Shape" fill="#3C3B5C"></path>
                <path d="M132.15,254.85 L7.3,254.85 C5.37317407,254.876765 3.51603062,254.130027 2.14406288,252.776853 C0.772095135,251.42368 -0.000185870567,249.577012 3.33066907e-15,247.65 L3.33066907e-15,131.25 C-1.44328993e-14,127.27355 3.2235498,124.05 7.2,124.05 L132.15,124.05 C136.12645,124.05 139.35,127.27355 139.35,131.25 L139.35,247.65 C139.35,251.62645 136.12645,254.85 132.15,254.85 Z M7.3,130.95 C7.22043505,130.95 7.14412887,130.981607 7.08786797,131.037868 C7.03160705,131.094129 7,131.170435 7,131.25 L7,247.65 C7,247.815686 7.13431457,247.95 7.3,247.95 L132.15,247.95 C132.315686,247.95 132.45,247.815686 132.45,247.65 L132.45,131.25 C132.45,131.084315 132.315686,130.95 132.15,130.95 L7.3,130.95 Z" id="Shape" fill="#3C3B5C"></path>
                <path d="M104.875,90.85 L225.75,90.85 C228.91183,90.85 231.475,93.4131697 231.475,96.575 L231.475,245.675 C231.475,248.83683 228.91183,251.4 225.75,251.4 L104.875,251.4 C101.71317,251.4 99.15,248.83683 99.15,245.675 L99.15,96.575 C99.15,93.4131697 101.71317,90.85 104.875,90.85 Z" id="Rectangle-path" fill="#F5F6F7"></path>
                <path d="M227.5,254.85 L103.1,254.85 C98.9578645,254.85 95.6,251.492135 95.6,247.35 L95.6,94.775 C95.6,90.6328645 98.9578645,87.275 103.1,87.275 L227.5,87.275 C231.642135,87.275 235,90.6328645 235,94.775 L235,247.5 C234.918315,251.58344 231.584257,254.850817 227.5,254.85 L227.5,254.85 Z M103.1,94.3 C102.967392,94.3 102.840215,94.3526785 102.746447,94.4464465 C102.652679,94.5402147 102.6,94.6673918 102.6,94.8 L102.6,247.5 C102.6,247.632608 102.652679,247.759785 102.746447,247.853553 C102.840215,247.947321 102.967392,248 103.1,248 L227.5,248 C227.776142,248 228,247.776142 228,247.5 L228,94.775 C228,94.4988578 227.776142,94.275 227.5,94.275 L103.1,94.3 Z" id="Shape" fill="#3C3B5C"></path>
                <polygon id="Rectangle-path" fill="#E5E5E5" points="102.55 94.45 123.625 94.45 123.625 247.9 102.55 247.9"></polygon>
                <path d="M231.475,125.7 L99.15,125.7 C97.2446175,125.7 95.7,124.155383 95.7,122.25 C95.7,120.344617 97.2446175,118.8 99.15,118.8 L231.475,118.8 C233.380382,118.8 234.925,120.344617 234.925,122.25 C234.925,124.155383 233.380382,125.7 231.475,125.7 Z" id="Shape" fill="#3C3B5C"></path>
                <path d="M146.325,125.7 C144.419618,125.7 142.875,124.155383 142.875,122.25 L142.875,90.85 C142.875,88.9446175 144.419618,87.4 146.325,87.4 C148.230382,87.4 149.775,88.9446175 149.775,90.85 L149.775,122.25 C149.775,123.164997 149.411519,124.042518 148.764519,124.689518 C148.117518,125.336519 147.239997,125.7 146.325,125.7 L146.325,125.7 Z" id="Shape" fill="#3C3B5C"></path>
                <circle id="Oval" fill="#F5F6F7" cx="164.875" cy="184.5" r="41.25"></circle>
                <path d="M164.875,229.2 C146.795538,229.2 130.496296,218.309195 123.577585,201.605949 C116.658874,184.902704 120.483216,165.676437 133.267327,152.892327 C146.051437,140.108216 165.277704,136.283874 181.98095,143.202585 C198.684195,150.121295 209.575,166.420538 209.575,184.5 C209.547445,209.175705 189.550705,229.172445 164.875,229.2 Z M164.875,146.7 C149.586327,146.7 135.803076,155.909674 129.952354,170.034566 C124.101632,184.159458 127.335639,200.417912 138.146364,211.228636 C148.957088,222.03936 165.215542,225.273368 179.340434,219.422646 C193.465326,213.571924 202.675,199.788673 202.675,184.5 C202.647456,163.635056 185.739943,146.727544 164.875,146.7 L164.875,146.7 Z" id="Shape" fill="#3C3B5C"></path>
                <path d="M172.5,184.5 C172.493945,175.649727 175.660437,167.090443 181.425,160.375 C169.243617,152.037406 152.758794,154.08294 142.984623,165.144908 C133.210453,176.206876 133.210453,192.818125 142.984623,203.880093 C152.758794,214.94206 169.243617,216.987594 181.425,208.65 C175.654825,201.928033 172.48796,193.358872 172.5,184.5 L172.5,184.5 Z" id="Shape" fill="#2196F3"></path>
                <path d="M164.875,217.225 C150.841214,217.186428 138.396876,208.197472 133.949955,194.886818 C129.503033,181.576163 134.045234,166.912218 145.237642,158.445893 C156.430049,149.979568 171.776645,149.598938 183.375,157.5 L186.525,159.675 L184.025,162.6 C173.247472,175.201573 173.247472,193.773427 184.025,206.375 L186.525,209.3 L183.375,211.475 C177.936262,215.227786 171.482813,217.233588 164.875,217.225 Z M164.875,158.7 C154.24195,158.71471 144.706985,165.251282 140.859196,175.163723 C137.011408,185.076165 139.638996,196.333968 147.477324,203.518853 C155.315653,210.703739 166.759085,212.343923 176.3,207.65 C166.630382,193.73127 166.630382,175.26873 176.3,161.35 C172.747128,159.597027 168.836782,158.690032 164.875,158.7 L164.875,158.7 Z" id="Shape" fill="#3C3B5C"></path>
                <circle id="Oval" fill="#4DABF5" transform="translate(166.141563, 202.078190) rotate(-73.090000) translate(-166.141563, -202.078190) " cx="166.141563" cy="202.07819" r="3.525"></circle>
                <path d="M21.725,59.75 L21.725,59.75 C23.5475397,59.75 25.025,61.2274603 25.025,63.05 L25.025,111.8 C25.025,113.62254 23.5475397,115.1 21.725,115.1 L21.725,115.1 C19.9024603,115.1 18.425,113.62254 18.425,111.8 L18.425,63.05 C18.425,61.2274603 19.9024603,59.75 21.725,59.75 Z" id="Rectangle-path" fill="#3C3B5C"></path>
                <path d="M21.725,141.775 L21.725,141.775 C23.5475397,141.775 25.025,143.25246 25.025,145.075 L25.025,193.825 C25.025,195.64754 23.5475397,197.125 21.725,197.125 L21.725,197.125 C19.9024603,197.125 18.425,195.64754 18.425,193.825 L18.425,145.075 C18.425,143.25246 19.9024603,141.775 21.725,141.775 Z" id="Rectangle-path" fill="#3C3B5C"></path>
                <circle id="Oval" fill="#2196F3" cx="211.9" cy="106.55" r="6.425"></circle>
                <path d="M211.9,116.425 C206.377152,116.425 201.9,111.947847 201.9,106.425 C201.9,100.902152 206.377152,96.425 211.9,96.425 C217.422847,96.425 221.9,100.902152 221.9,106.425 C221.9,111.947847 217.422847,116.425 211.9,116.425 Z M211.9,103.55 C210.278245,103.618271 209.010557,104.973906 209.051054,106.596592 C209.091552,108.219279 210.425286,109.509988 212.048428,109.497276 C213.67157,109.484564 214.984923,108.173122 215,106.55 C214.993709,105.741064 214.660991,104.968952 214.077323,104.408819 C213.493655,103.848686 212.70851,103.54801 211.9,103.575 L211.9,103.55 Z" id="Shape" fill="#3C3B5C"></path>
                <path d="M147.95,184.5 C147.95666,171.959259 156.97184,161.235939 169.325,159.075 C159.132586,157.203614 148.807683,161.599898 143.092906,170.244476 C137.378129,178.889052 137.378129,190.110948 143.092906,198.755525 C148.807683,207.400102 159.132586,211.796386 169.325,209.925 C156.97184,207.764061 147.95666,197.040741 147.95,184.5 L147.95,184.5 Z" id="Shape" fill="#1769AA"></path>
            </g>
        </g>
    </g>
</svg>