<?xml version="1.0" encoding="UTF-8"?>
<svg width="300px" height="300px" viewBox="0 0 300 300" version="1.1" xmlns="http://www.w3.org/2000/svg" xmlns:xlink="http://www.w3.org/1999/xlink">
    <!-- Generator: Sketch 53 (72520) - https://sketchapp.com -->
    <title>Electric and Sanitary</title>
    <desc>Created with Sketch.</desc>
    <g id="Electric-and-Sanitary" stroke="none" stroke-width="1" fill="none" fill-rule="evenodd">
        <g>
            <rect id="Rectangle-3-Copy-4" x="0" y="0" width="300" height="300"></rect>
            <g id="e2e_electrical-copy" transform="translate(22.500000, 25.000000)" fill-rule="nonzero">
                <path d="M201.37448,65.1801548 L203.714579,65.1771585 C210.720093,65.1681885 216.406456,70.840008 216.415426,77.845522 C216.41544,77.8563498 216.41544,77.8671773 216.415426,77.878005 L216.297045,170.333489 C216.288091,177.326321 210.621513,182.992899 203.628681,183.001852 L201.288582,183.004849 C194.283068,183.013819 188.596705,177.341999 188.587736,170.336485 C188.587722,170.325658 188.587722,170.31483 188.587736,170.304002 L188.706116,77.8485183 C188.71507,70.8556865 194.381648,65.1891085 201.37448,65.1801548 Z" id="Rectangle-path" fill="#F5F6F7" transform="translate(202.501581, 124.091004) rotate(45.000000) translate(-202.501581, -124.091004) "></path>
                <path d="M170.610257,173.326087 C166.178543,173.342239 161.924668,171.588676 158.797436,168.456522 L158.034616,167.695652 C151.516542,161.185833 151.516542,150.640254 158.034616,144.130435 L222.61282,79.7173913 C229.144286,73.2279408 239.706996,73.2279408 246.238461,79.7173913 L247.001282,80.4782608 C253.507372,86.993022 253.507372,97.528717 247.001282,104.043478 L182.423077,168.456522 C179.295845,171.588676 175.04197,173.342239 170.610257,173.326087 L170.610257,173.326087 Z M234.425641,81.5869565 C231.785903,81.5732655 229.250603,82.614543 227.385897,84.4782608 L162.807692,148.913044 C158.936757,152.789574 158.936757,159.058252 162.807692,162.934783 L163.570513,163.695652 C167.461895,167.544807 173.736823,167.544807 177.628205,163.695652 L242.20641,99.2826088 C246.077345,95.4060783 246.077345,89.1374 242.20641,85.2608695 L241.44359,84.5 C239.584208,82.6416495 237.057834,81.600816 234.425641,81.6086958 L234.425641,81.5869565 Z" id="Shape" fill="#3C3B5C"></path>
                <path d="M128.703994,-7.31321829 L131.044093,-7.31621459 C138.049607,-7.32518452 143.73597,-1.65336499 143.74494,5.35214891 C143.744954,5.36297656 143.744954,5.37380423 143.74494,5.38463188 L143.626559,97.8401157 C143.617605,104.832948 137.951027,110.499526 130.958195,110.508479 L128.618096,110.511476 C121.612582,110.520445 115.92622,104.848626 115.91725,97.8431122 C115.917236,97.8322844 115.917236,97.8214567 115.91725,97.8106292 L116.035631,5.35514518 C116.044584,-1.63768667 121.711162,-7.30426462 128.703994,-7.31321829 Z" id="Rectangle-path" fill="#F5F6F7" transform="translate(129.831095, 51.597631) rotate(45.000000) translate(-129.831095, -51.597631) "></path>
                <path d="M97.924359,100.847826 C93.4940775,100.85673 89.2428865,99.1042735 86.1115385,95.9782607 L86.1115385,95.9782607 L85.348718,95.2173912 C78.8426278,88.70263 78.8426278,78.1669352 85.348718,71.652174 L149.926923,7.2173913 C156.453434,0.715987695 167.026053,0.715987695 173.552564,7.2173913 L174.315385,7.97826087 C180.833459,14.48808 180.833459,25.033659 174.315385,31.5434782 L109.737179,95.9782607 C106.605831,99.1042735 102.354641,100.85673 97.924359,100.847826 Z M90.8846155,91.3043477 C94.7710855,95.1653825 101.055837,95.1653825 104.942308,91.3043477 L169.542308,26.7826087 C173.413242,22.9060783 173.413242,16.6373999 169.542308,12.7608696 L168.779487,12 C164.893017,8.13896527 158.608265,8.13896527 154.721795,12 L90.1217948,76.4130435 C86.2627708,80.2944732 86.2627708,86.5533528 90.1217948,90.4347825 L90.8846155,91.3043477 Z" id="Shape" fill="#3C3B5C"></path>
                <path d="M148.946154,217.978261 L130.769231,235.5 C129.236197,236.557731 127.424011,237.14008 125.560257,237.173913 L96.0935897,239.130435 L112.047436,218.804348 L148.946154,217.978261 Z" id="Shape" fill="#F5F6F7"></path>
                <path d="M8.18299848,211.647835 L46.7892253,211.598403 C48.6068071,211.596076 50.0821348,213.067631 50.0844621,214.885213 C50.0844658,214.888022 50.0844658,214.890831 50.0844621,214.89364 L50.0628453,231.7764 C50.0605223,233.590691 48.5903276,235.060886 46.7760363,235.063209 L8.16980936,235.112641 C6.35222758,235.114968 4.87689981,233.643414 4.87457256,231.825832 C4.87456896,231.823023 4.87456896,231.820213 4.87457256,231.817404 L4.89618941,214.934644 C4.89851243,213.120353 6.36870706,211.650158 8.18299848,211.647835 Z" id="Rectangle-path" fill="#2196F3" transform="translate(27.479517, 223.355522) rotate(45.000000) translate(-27.479517, -223.355522) "></path>
                <path d="M35.1551282,250 C33.5833787,250.000968 32.0765587,249.374732 30.9705128,248.26087 L2.63717947,220 C1.52319769,218.890796 0.89720647,217.385233 0.89720647,215.815218 C0.89720647,214.245201 1.52319769,212.739639 2.63717947,211.630435 L15.7141026,198.586957 C18.0630356,196.353691 21.7561951,196.353691 24.1051282,198.586957 L52.4384615,226.847826 C54.7464282,229.162791 54.7464282,232.902426 52.4384615,235.217391 L39.3615385,248.26087 C38.250183,249.380108 36.734429,250.006793 35.1551282,250 Z M7.93333332,215.695652 L35.1333333,242.826087 L46.9679488,231.021739 L19.7679487,203.891304 L7.93333332,215.695652 Z" id="Shape" fill="#3C3B5C"></path>
                <path d="M163.461538,199.5 L177.148718,186.456522 C178.258592,185.424027 178.90489,183.989253 178.941795,182.475907 C178.978701,180.96256 178.403105,179.49814 177.344872,178.413044 L75.301282,76.7826088 C73.067582,74.617599 69.4979315,74.66624 67.324359,76.8913043 L34.6320513,109.5 L24.9333333,119.173913 L19.2666667,124.826087 C18.3258124,125.760586 17.733647,126.987912 17.5884616,128.304348 L16.651282,137 L15.125641,150.934783 L10.7666667,190.913044 C10.5810356,192.566007 11.1583594,194.21357 12.3358974,195.391304 L55.075641,238.021739 C56.2261357,239.159099 57.8213102,239.731893 59.4346155,239.586956 L106.707692,235.23913 L125.88718,233.891304 C127.214004,233.773943 128.460302,233.206102 129.417949,232.282609 L142.233333,219.782609 L146.461538,215.76087" id="Shape" fill="#F5F6F7"></path>
                <path d="M58.9551283,242.934783 C56.6011288,242.939574 54.3422378,242.0086 52.6782053,240.347826 L9.9602564,197.826087 C8.0560763,195.92309 7.1253637,193.258136 7.43205128,190.586957 L14.2320513,128.021739 C14.4585063,125.942629 15.3887174,124.002616 16.8692308,122.521739 L64.948718,74.5 C68.4411037,70.9620858 74.1462145,70.9134488 77.698718,74.3913043 L179.655128,176.086957 C181.35459,177.759423 182.292058,180.053881 182.248718,182.434782 C182.231187,184.902233 181.208398,187.25648 179.415384,188.956522 L165.70641,202 C164.35225,203.284662 162.210392,203.231131 160.922436,201.880435 C159.63448,200.529738 159.688148,198.393358 161.042308,197.108696 L174.729487,184.065218 C175.194535,183.622031 175.461545,183.011047 175.470513,182.369565 C175.473929,181.802331 175.254929,181.256232 174.860256,180.847826 L72.925641,79.152174 C72.4980023,78.7197058 71.908466,78.4854215 71.299832,78.5060705 C70.691198,78.5267193 70.1189842,78.8004178 69.7217948,79.2608695 L21.6423077,127.217391 C21.2519839,127.610681 21.0062322,128.123908 20.9448718,128.673913 L14.1448718,191.304348 C14.0740149,191.942281 14.2894046,192.578841 14.7333333,193.043478 L57.473077,235.673913 C57.9285808,236.104588 58.5481135,236.318493 59.173077,236.26087 L106.424359,231.913043 L125.669231,230.565218 C126.203417,230.503859 126.701885,230.266737 127.085898,229.891304 L144.129487,213.347826 C144.991671,212.463996 146.26903,212.120543 147.45976,212.45239 C148.650491,212.784238 149.564366,213.73837 149.842374,214.939963 C150.120383,216.141556 149.718111,217.398645 148.79359,218.217391 L144.565384,222.26087 L131.79359,234.782609 C130.272698,236.243888 128.295917,237.141522 126.192308,237.326087 L106.969231,238.673913 L59.7615385,243.021739 L58.9551283,242.934783 Z" id="Shape" fill="#3C3B5C"></path>
                <path d="M154.460256,208.065218 L155.026923,207.5" id="Shape" fill="#F5F6F7"></path>
                <path d="M154.460257,211.434783 C153.082762,211.442026 151.838826,210.614306 151.316508,209.342918 C150.79419,208.071529 151.098118,206.611156 152.084616,205.652174 L152.651282,205.086957 C153.499311,204.183452 154.775671,203.816382 155.97578,204.13086 C157.175888,204.445338 158.10656,205.390741 158.399874,206.593324 C158.693187,207.795907 158.301927,209.062087 157.380769,209.891304 L156.814103,210.456522 C156.189064,211.078777 155.343344,211.430259 154.460257,211.434783 L154.460257,211.434783 Z" id="Shape" fill="#3C3B5C"></path>
                <path d="M57.4851168,92.0078022 L221.808997,91.7974004 C225.468235,91.7927149 228.438431,94.7553149 228.443117,98.4145524 C228.443124,98.4202082 228.443124,98.4258637 228.443117,98.4315194 L228.402698,129.99846 C228.398021,133.651073 225.438159,136.610935 221.785546,136.615612 L57.4616653,136.826014 C53.8024278,136.830699 50.8322316,133.868099 50.8275461,130.208862 C50.8275391,130.203206 50.8275391,130.197551 50.8275461,130.191895 L50.8679648,98.6249542 C50.8726416,94.9723412 53.8325036,92.0124789 57.4851168,92.0078022 Z" id="Rectangle-path" fill="#2196F3" transform="translate(139.635331, 114.311707) rotate(45.000000) translate(-139.635331, -114.311707) "></path>
                <path d="M186.629487,194.065217 C184.36659,194.073634 182.193738,193.181678 180.592308,191.586956 L180.592308,191.586956 L62.1589742,73.4347825 C58.8423767,70.110276 58.8423767,64.73755 62.1589742,61.4130435 L86.6128205,36.9565218 C88.2110048,35.36218 90.378755,34.4664675 92.6391025,34.4664675 C94.89945,34.4664675 97.0672005,35.36218 98.6653845,36.9565218 L217.120513,155.108696 C218.718943,156.702793 219.616952,158.864999 219.616952,161.119565 C219.616952,163.374132 218.718943,165.536338 217.120513,167.130435 L192.666667,191.586956 C191.066605,193.183727 188.892858,194.07605 186.629487,194.065217 L186.629487,194.065217 Z M185.387179,186.804348 C185.718643,187.137569 186.169774,187.324991 186.640384,187.324991 C187.110995,187.324991 187.562126,187.137569 187.89359,186.804348 L212.347436,162.413044 C213.028889,161.726774 213.028889,160.621052 212.347436,159.934782 L93.8923077,41.7826088 C93.1950808,41.1255773 92.1049192,41.1255773 91.4076922,41.7826088 L66.9320513,66.1956522 C66.2505978,66.8819213 66.2505978,67.987644 66.9320513,68.673913 L185.387179,186.826087 L185.387179,186.804348 Z" id="Shape" fill="#3C3B5C"></path>
                <path d="M172.943008,140.870072 L173.651713,140.87098 C175.718323,140.873626 177.392982,142.548285 177.395628,144.614895 L177.442773,181.435055 C177.445424,183.505413 175.769216,185.185919 173.698858,185.188569 C173.695658,185.188574 173.692458,185.188574 173.689258,185.188569 L172.980553,185.187662 C170.913943,185.185016 169.239284,183.510357 169.236638,181.443747 L169.189493,144.623587 C169.186842,142.553229 170.86305,140.872723 172.933408,140.870072 C172.936608,140.870068 172.939808,140.870068 172.943008,140.870072 Z" id="Rectangle-path" fill="#4DABF5" transform="translate(173.316133, 163.029321) rotate(-45.000000) translate(-173.316133, -163.029321) "></path>
                <path d="M31.960102,225.115918 L32.4749705,225.116577 C34.097019,225.118654 35.4114315,226.433066 35.4135083,228.055115 L35.4242568,236.449638 C35.4263375,238.074628 34.1107093,239.39363 32.4857188,239.395711 C32.4832073,239.395714 32.4806958,239.395714 32.478184,239.395711 L31.9633155,239.395051 C30.341267,239.392974 29.0268545,238.078562 29.0247778,236.456513 L29.0140293,228.06199 C29.0119485,226.437 30.3275768,225.117998 31.9525673,225.115918 C31.9550788,225.115915 31.9575903,225.115915 31.960102,225.115918 Z" id="Rectangle-path" fill="#4DABF5" transform="translate(32.219143, 232.255814) rotate(135.000000) translate(-32.219143, -232.255814) "></path>
                <polygon id="Shape" fill="#E5E5E5" points="87.5935897 141.608696 67.2153845 161.913044 54.7051283 146.73913 73.1 128.673913"></polygon>
                <path d="M106.097436,201.23913 C103.40163,201.244763 100.814174,200.181145 98.9051283,198.282609 L98.9051283,198.282609 L55.4461538,154.934783 C51.4896395,150.966271 51.4896395,144.555468 55.4461538,140.586957 L66.9538462,129.108696 C70.9325333,125.162301 77.3597745,125.162301 81.3384615,129.108696 L124.819231,172.434782 C128.775745,176.403294 128.775745,182.814097 124.819231,186.782609 L113.333333,198.282609 C111.413619,200.191853 108.808329,201.256351 106.097436,201.23913 Z M103.678205,193.478261 C105.01442,194.810681 107.180451,194.810681 108.516667,193.478261 L120.024359,182 C121.360195,180.667202 121.360195,178.506711 120.024359,177.173913 L76.5871795,133.869565 C75.250964,132.537146 73.0849332,132.537146 71.748718,133.869565 L60.2410257,145.347826 C58.9051897,146.680624 58.9051897,148.841115 60.2410257,150.173913 L103.678205,193.478261 Z" id="Shape" fill="#3C3B5C"></path>
                <path d="M165.858974,10.3043478 C162.006559,8.64353868 157.535615,9.39246385 154.438462,12.2173913 L114.205128,52.6086958 L119,57.1086958 L165.858974,10.3043478 Z" id="Shape" fill="#E5E5E5"></path>
                <path d="M238.653846,82.847826 C234.763468,81.1479325 230.23086,81.9356852 227.146154,84.847826 L186.912821,125.239131 L191.707692,129.73913 L238.653846,82.847826 Z" id="Shape" fill="#E5E5E5"></path>
                <path d="M102.435897,50.4130435 L93.7179488,41.8913043 C93.0781652,41.390608 92.178245,41.390608 91.5384615,41.8913043 L67.1282052,66.1956522 C66.781742,66.555206 66.6090805,67.0472193 66.655101,67.5438032 C66.7011215,68.040387 66.9612782,68.4924943 67.3679487,68.7826087 L75.323077,76.7608695 L102.435897,50.4130435 Z" id="Shape" fill="#4DABF5"></path>
                <polygon id="Shape" fill="#E5E5E5" points="68.8717948 80.3043478 82.951282 94.3695653 17.8282051 159.326087 21.0538462 128.043478"></polygon>
                <polygon id="Shape" fill="#4DABF5" points="17.9371795 205.891304 21.6205128 209.586957 11.8346154 219.347826 8.08589742 215.695652"></polygon>
            </g>
        </g>
    </g>
</svg>