<?xml version="1.0" encoding="UTF-8"?>
<svg width="300px" height="300px" viewBox="0 0 300 300" version="1.1" xmlns="http://www.w3.org/2000/svg" xmlns:xlink="http://www.w3.org/1999/xlink">
    <!-- Generator: Sketch 53 (72520) - https://sketchapp.com -->
    <title>Shifting</title>
    <desc>Created with Sketch.</desc>
    <g id="Shifting" stroke="none" stroke-width="1" fill="none" fill-rule="evenodd">
        <g>
            <rect id="Rectangle-3" x="0" y="0" width="300" height="300"></rect>
            <g id="Group-4" transform="translate(0.000000, 45.000000)">
                <path d="M183.610169,50.8433735 L259.144068,50.8433735 C260.886069,50.8479779 262.477858,51.8304856 263.262712,53.3855422 L294.559322,113.584096 C294.906496,114.242593 295.089643,114.975129 295.09322,115.719518 L295.09322,172.816627 C295.09322,175.371908 293.021588,177.443373 290.466102,177.443373 L9.22881356,177.443373 C6.67332651,177.443373 4.60169492,175.371908 4.60169492,172.816627 L4.60169492,138.319398 L178.957627,138.319398 L178.957627,55.3684337 C179.013107,52.8430332 181.083998,50.8288852 183.610169,50.8433735 Z" id="Shape" fill="#F5F6F7" fill-rule="nonzero"></path>
                <g id="Group-3" transform="translate(4.601695, 0.000000)">
                    <polyline id="Path-4" stroke="#3C3B5C" stroke-width="7.62711864" fill="#FFFFFF" fill-rule="nonzero" points="61.0169492 137.277108 61.0169492 81.3493976 94.0677966 81.3493976 94.0677966 137.277108"></polyline>
                    <polyline id="Path-3" stroke="#3C3B5C" stroke-width="7.62711864" points="22.8813559 72.437341 22.8813559 137.277108 127.118644 137.277108 127.118644 66.2215162"></polyline>
                    <polygon id="Path-2" fill="#FFFFFF" fill-rule="nonzero" points="123.328528 43.4678733 77.5423729 0 0 73.5600207 9.86567875 83.8915663 77.5423729 19.8311121 145.204519 83.8915663 155.084746 73.5600207 131.889429 51.9947176"></polygon>
                    <path d="M116.244069,36.2404301 L79.2915198,1.63790861 C78.3092166,0.718075706 76.7801995,0.723030278 75.803879,1.64920984 L1.85032304,71.8047249 C0.831690051,72.7710439 0.789344062,74.3800989 1.75574062,75.39865 C1.75761129,75.4006217 1.75948512,75.4025904 1.76136211,75.404556 L8.11749272,82.0608291 C9.08420324,83.0731888 10.687476,83.113681 11.7040658,82.1514116 L75.7943886,21.4856945 C76.7748582,20.5576153 78.3098095,20.5576976 79.2901795,21.4858821 L143.367474,82.1523083 C144.383508,83.1142578 145.985928,83.0744632 146.952952,82.063266 L153.28769,75.4391643 C154.258096,74.4244312 154.222095,72.8152217 153.207281,71.8448939 C153.193501,71.8317184 153.179574,71.8186982 153.165501,71.8058358 L133.778325,54.086005" id="Path-2" stroke="#3C3B5C" stroke-width="7.62711864" stroke-linecap="round"></path>
                    <path d="M123.940678,45.7590361 C124.398305,46.3239625 124.627119,46.6064256 124.627119,46.6064256" id="Shape" stroke="#3C3B5C" stroke-width="7.62711864" fill="#F7F7F5" fill-rule="nonzero" stroke-linecap="round"></path>
                </g>
                <path d="M290.415254,181.282048 L9.22881356,181.282048 C4.46886788,181.282048 0.610169492,177.42366 0.610169492,172.664096 L0.610169492,134.353614 L174.991525,134.353614 L174.991525,55.3684337 C174.991525,50.6088704 178.850224,46.7504819 183.610169,46.7504819 L259.144068,46.7504819 C262.356175,46.7539492 265.298179,48.5484282 266.771186,51.4026506 L298.067797,111.601205 C298.70278,112.826703 299.034107,114.186776 299.033898,115.566988 L299.033898,172.664096 C299.033898,177.42366 295.175199,181.282048 290.415254,181.282048 Z M8.56779661,142.361446 L8.56779661,172.71494 C8.56779661,173.07998 8.86374399,173.375904 9.22881356,173.375904 L290.415254,173.375904 C290.590566,173.375904 290.758698,173.306266 290.882664,173.182312 C291.006628,173.058357 291.076271,172.890238 291.076271,172.71494 L291.076271,115.566988 C291.101039,115.466809 291.101039,115.362106 291.076271,115.261928 L259.728814,55.0633735 C259.615297,54.8451987 259.390022,54.7080864 259.144068,54.7074699 L183.610169,54.7074699 C183.2451,54.7074699 182.949153,55.0033936 182.949153,55.3684337 L182.949153,142.361446 L8.56779661,142.361446 Z" id="Shape" fill="#3C3B5C" fill-rule="nonzero"></path>
                <ellipse id="Oval" fill="#2196F3" fill-rule="nonzero" cx="60.3050847" cy="179.248313" rx="25.3983051" ry="25.3962651"></ellipse>
                <path d="M60.3050847,208.635783 C48.4156998,208.646067 37.6913008,201.492564 33.1343019,190.512037 C28.5773029,179.53151 31.0854928,166.887268 39.4889219,158.477239 C47.8923514,150.067209 60.5354336,147.548279 71.5207823,152.095408 C82.5061307,156.642536 89.6694872,167.359879 89.6694915,179.248313 C89.6555003,195.462845 76.5209006,208.607761 60.3050847,208.635783 L60.3050847,208.635783 Z M60.3050847,157.79241 C48.4684058,157.79241 38.8728814,167.387163 38.8728814,179.222892 C38.8728814,191.05862 48.4684058,200.653373 60.3050847,200.653373 C72.1417637,200.653373 81.7372881,191.05862 81.7372881,179.222892 C81.7092847,167.402899 72.1260514,157.831803 60.3050847,157.817831 L60.3050847,157.79241 Z" id="Shape" fill="#3C3B5C" fill-rule="nonzero"></path>
                <path d="M45.7627119,179.248313 C45.7683071,170.626205 50.4234191,162.677195 57.940678,158.453373 C47.2892926,159.571727 39.202022,168.551939 39.202022,179.261024 C39.202022,189.970109 47.2892926,198.950321 57.940678,200.068675 C50.4154894,195.840396 45.7591197,187.879518 45.7627119,179.248313 Z" id="Shape" fill="#4DABF5" fill-rule="nonzero"></path>
                <ellipse id="Oval" fill="#2196F3" fill-rule="nonzero" cx="235.372881" cy="179.248313" rx="25.3983051" ry="25.3962651"></ellipse>
                <path d="M235.372881,208.635783 C219.141326,208.635783 205.983051,195.478565 205.983051,179.248313 C205.983051,163.018062 219.141326,149.860843 235.372881,149.860843 C251.604437,149.860843 264.762712,163.018062 264.762712,179.248313 C264.748693,195.472755 251.598627,208.621766 235.372881,208.635783 L235.372881,208.635783 Z M235.372881,157.79241 C226.704364,157.79241 218.889405,163.013779 215.572107,171.021801 C212.254809,179.029824 214.088458,188.247456 220.218025,194.376531 C226.347592,200.505606 235.565965,202.339107 243.57463,199.022075 C251.583296,195.705044 256.805085,187.890712 256.805085,179.222892 C256.777081,167.402899 247.193848,157.831803 235.372881,157.817831 L235.372881,157.79241 Z" id="Shape" fill="#3C3B5C" fill-rule="nonzero"></path>
                <path d="M220.805085,179.248313 C220.81068,170.626205 225.465792,162.677195 232.983051,158.453373 C222.331666,159.571727 214.244395,168.551939 214.244395,179.261024 C214.244395,189.970109 222.331666,198.950321 232.983051,200.068675 C225.457862,195.840396 220.801493,187.879518 220.805085,179.248313 Z" id="Shape" fill="#4DABF5" fill-rule="nonzero"></path>
                <path d="M272.033898,117.778675 L196.881356,117.778675 L196.881356,67.8500069 L243.559322,67.8504819 C245.361482,67.8252702 247.027794,68.8053754 247.881356,70.3926506 L272.033898,117.778675 Z" id="Shape" fill="#F5F6F7" fill-rule="nonzero"></path>
                <path d="M272.033898,121.744458 L196.881356,121.744458 C194.690938,121.744458 192.915254,119.968916 192.915254,117.778675 L192.915254,67.8504819 C192.915254,65.6602404 194.690938,63.8846988 196.881356,63.8846988 L243.559322,63.8846988 C246.881448,63.8771994 249.922709,65.7470804 251.415254,68.7148193 L275.466102,115.973735 C276.087097,117.187526 276.040998,118.635186 275.344037,119.807017 C274.647079,120.978847 273.396986,121.710532 272.033898,121.744458 L272.033898,121.744458 Z M200.847458,113.78747 L265.423729,113.78747 L244.322034,72.2992771 C244.178758,72.0077615 243.884128,71.8211775 243.559322,71.8162651 L200.847458,71.8162651 L200.847458,113.78747 Z" id="Shape" fill="#3C3B5C" fill-rule="nonzero"></path>
                <path d="M8.59322034,142.361446 L31.1186441,142.361446 L31.1186441,173.375904 L9.48305085,173.375904 C8.99161103,173.375904 8.59322034,172.977545 8.59322034,172.486145 L8.59322034,142.361446 L8.59322034,142.361446 Z" id="Shape" fill="#E5E5E5" fill-rule="nonzero"></path>
            </g>
        </g>
    </g>
</svg>