<?xml version="1.0" encoding="UTF-8"?>
<svg width="300px" height="300px" viewBox="0 0 300 300" version="1.1" xmlns="http://www.w3.org/2000/svg" xmlns:xlink="http://www.w3.org/1999/xlink">
    <!-- Generator: Sketch 53 (72520) - https://sketchapp.com -->
    <title>Car Wash</title>
    <desc>Created with Sketch.</desc>
    <g id="Car-Wash" stroke="none" stroke-width="1" fill="none" fill-rule="evenodd">
        <g>
            <g id="Group-13-Copy-4">
                <rect id="Rectangle-3" x="0" y="0" width="300" height="300"></rect>
                <path d="M278.8838,83.6177735 L270.694498,81.9702342 C264.140545,80.6514062 259.047767,75.5982227 257.719108,69.0957228 L256.05866,60.9695897 C255.34037,57.454873 252.314117,55 248.700083,55 C245.085546,55 242.059795,57.454873 241.342008,60.9695897 L239.681559,69.0957228 C238.3529,75.5982227 233.260122,80.6514062 226.706169,81.9702342 L218.516867,83.6177735 C214.97461,84.3304785 212.5,87.332705 212.5,90.9191405 C212.5,94.5055762 214.974108,97.5083007 218.516867,98.2210058 L226.706169,99.868545 C233.260122,101.186875 238.3529,106.240059 239.681559,112.743057 L241.342008,120.868691 C242.060297,124.383408 245.085546,126.838281 248.700083,126.838281 C252.314117,126.838281 255.34037,124.383408 256.05866,120.868691 L257.719108,112.742559 C259.047767,106.240059 264.140545,101.186875 270.694498,99.8680467 L278.8838,98.2205077 C282.426057,97.5078027 284.900667,94.5055762 284.900667,90.9191405 C284.900667,87.332705 282.426057,84.3304785 278.8838,83.6177735 Z" id="Path" fill="#2196F3" fill-rule="nonzero"></path>
                <path d="M278.8838,83.6177735 L270.694498,81.9702345 C264.140545,80.6514062 259.047767,75.5982227 257.719108,69.0957228 L256.05866,60.9695897 C255.34037,57.454873 252.314117,55 248.700083,55 C245.085546,55 242.059795,57.454873 241.342008,60.9695897 L239.681559,69.0957228 C238.3529,75.5982227 233.260122,80.6514062 226.706169,81.9702345 L218.516867,83.6177735 C214.97461,84.3304785 212.5,87.332705 212.5,90.9191407 C212.5,94.5055762 214.974108,97.5083007 218.516867,98.2210058 L226.706169,99.868545 C233.260122,101.186875 238.3529,106.240059 239.681559,112.743057 L241.342008,120.868691 C242.060297,124.383408 245.085546,126.838281 248.700083,126.838281 C252.314117,126.838281 255.34037,124.383408 256.05866,120.868691 L257.719108,112.742559 C259.047767,106.240059 264.140545,101.186875 270.694498,99.868047 L278.8838,98.2205077 C282.426057,97.5078027 284.900667,94.5055762 284.900667,90.9191407 C284.900667,87.332705 282.426057,84.3304785 278.8838,83.6177735 Z M269.149497,92.304209 C259.526125,94.2406153 252.04708,101.661016 250.095503,111.20957 L248.700083,118.036797 L247.305166,111.20957 C245.353587,101.661016 237.874542,94.2401172 228.25117,92.304209 L221.370448,90.9191407 L228.25117,89.5355665 C237.875044,87.5991603 245.353587,80.1782617 247.305166,70.629707 L248.701087,63.8024805 L250.095503,70.629707 C252.04708,80.1782617 259.525625,87.5991603 269.149497,89.5355665 L276.03022,90.9201368 L269.149497,92.304209 Z" id="Shape" fill="#3C3B5C" fill-rule="nonzero"></path>
                <g id="Group-12" transform="translate(5.000000, 100.000000)">
                    <g id="Group-11">
                        <path d="M283.192363,122.5 L274.115702,122.5 C272.86338,122.5 271.84668,121.483598 271.84668,120.231639 C271.84668,118.97968 272.86338,117.963278 274.115702,117.963278 L283.192363,117.963278 C284.653692,117.963278 285.461388,117.155818 285.461388,115.694916 L285.461388,97.546894 C285.461388,96.0859923 284.653692,95.2785327 283.192363,95.2785327 L280.92334,95.2785327 C279.825078,95.2785327 278.88088,94.489193 278.690567,93.4093715 L275.05537,72.9929877 C273.430917,64.4450145 266.83172,57.8528375 258.25916,56.2243285 L221.988769,49.8767675 C221.539609,49.7997588 221.13123,49.5908157 220.799883,49.2731548 L193.116211,22.5046802 C181.09877,10.9171254 165.06041,4.53785495 147.95041,4.53785495 L15.4306055,4.53785495 C13.9692774,4.53785495 13.161582,5.34531453 13.161582,6.80621618 L13.161582,11.3435049 C13.161582,12.8044065 13.9692774,13.6118661 15.4306055,13.6118661 L21.330293,13.6118661 C23.9034765,13.6118661 26.1815625,14.8915706 27.4253907,17.0325276 C28.6369335,19.1151618 28.6188085,21.651355 27.3846092,23.810998 C26.4766602,25.4446033 25.401621,27.3318842 24.2710742,29.3188237 C22.6233984,32.2179773 20.8494141,35.3351337 19.233457,38.2931765 C15.494043,44.5405127 13.6152734,51.777072 13.6152734,59.8896062 L13.6152734,93.0096053 C13.6152734,94.261564 12.5985742,95.2779665 11.34625,95.2779665 L6.80763673,95.2779665 C5.3463086,95.2779665 4.53861328,96.085426 4.53861328,97.5463277 L4.53861328,115.69435 C4.53861328,117.155252 5.3463086,117.962711 6.80763673,117.962711 L277.684237,117.962711 C278.936562,117.962711 279.953262,118.979114 279.953262,120.231073 C279.953262,121.483031 278.936562,122.499434 277.684237,122.499434 L6.80763673,122.499434 C2.86375,122.5 0,119.637086 0,115.69435 L0,97.5463277 C0,93.603592 2.86375,90.7406778 6.80763673,90.7406778 L9.07666015,90.7406778 L9.07666015,59.88904 C9.07666015,50.9418668 11.1689649,42.9159675 15.2986328,36.0378387 C16.8777734,33.1341552 18.665918,29.9898192 20.3271875,27.0725457 C21.4481055,25.0991963 22.5146484,23.2294686 23.4316602,21.5828399 C24.030918,20.530198 23.7312891,19.7046187 23.4996289,19.3099488 C23.0776563,18.5840279 22.2654297,18.1485885 21.330293,18.1485885 L15.4306055,18.1485885 C11.4232812,18.1485885 8.62296875,15.3490933 8.62296875,11.3429386 L8.62296875,6.80564993 C8.62296875,2.79949523 11.4232812,0 15.4306055,0 L147.95041,0 C166.239668,0 183.399512,6.8328295 196.269961,19.2369036 L223.454629,45.5246395 L259.075918,51.7583862 C269.527812,53.7453255 277.53793,61.7536712 279.520917,72.1657097 L282.829297,90.7401115 C287.13625,90.7401115 290,93.6030258 290,97.5457615 L290,115.693784 C290,119.637086 287.140783,122.5 283.192363,122.5 Z" id="Shape" stroke="#3C3B5C" stroke-width="2.5" fill="#3C3B5C" fill-rule="nonzero"></path>
                        <g id="Group-4-Copy" transform="translate(35.000000, 87.500000)" fill-rule="nonzero">
                            <circle id="Oval" fill="#2196F3" cx="29.3" cy="31.275" r="24.975"></circle>
                            <path d="M29.3,60.175 C17.6087714,60.1851135 7.06311247,53.1502702 2.58206347,42.351885 C-1.89898551,31.5534995 0.567401158,19.118996 8.83077328,10.8484694 C17.0941454,2.57794285 29.5265098,0.100795969 40.3287693,4.57249808 C51.1310285,9.04420018 58.1749958,19.583767 58.175,31.275 C58.161242,47.22057 45.2455523,60.1474423 29.3,60.175 L29.3,60.175 Z M29.3,10.175 C17.6605989,10.175 8.225,19.6105989 8.225,31.25 C8.225,42.889401 17.6605989,52.325 29.3,52.325 C40.939401,52.325 50.375,42.889401 50.375,31.25 C50.3474633,19.6260741 40.9239505,10.2137398 29.3,10.2 L29.3,10.175 Z" id="Shape" fill="#3C3B5C"></path>
                            <path d="M15,31.275 C15.0055019,22.7959129 19.5830287,14.9787585 26.975,10.825 C16.5011378,11.9248029 8.5486551,20.7560539 8.5486551,31.2875 C8.5486551,41.818946 16.5011378,50.650197 26.975,51.75 C19.5752313,47.5918585 14.9964677,39.763033 15,31.275 Z" id="Shape" fill="#4DABF5"></path>
                            <circle id="Oval" fill="#2196F3" cx="201.45" cy="31.275" r="24.975"></circle>
                            <path d="M201.45,60.175 C185.488971,60.175 172.55,47.2360293 172.55,31.275 C172.55,15.3139707 185.488971,2.375 201.45,2.375 C217.411029,2.375 230.35,15.3139707 230.35,31.275 C230.336216,47.2303163 217.405316,60.1612158 201.45,60.175 L201.45,60.175 Z M201.45,10.175 C192.925958,10.175 185.241249,15.3097589 181.979239,23.1849467 C178.717229,31.0601345 180.520317,40.1248677 186.547725,46.1522755 C192.575132,52.1796833 201.639866,53.9827708 209.515053,50.7207612 C217.390241,47.4587515 222.525,39.7740418 222.525,31.25 C222.497463,19.6260741 213.073951,10.2137398 201.45,10.2 L201.45,10.175 Z" id="Shape" fill="#3C3B5C"></path>
                            <path d="M187.125,31.275 C187.130502,22.7959129 191.708029,14.9787585 199.1,10.825 C188.626138,11.9248029 180.673655,20.7560539 180.673655,31.2875 C180.673655,41.818946 188.626138,50.650197 199.1,51.75 C191.700231,47.5918585 187.121468,39.763033 187.125,31.275 Z" id="Shape" fill="#4DABF5"></path>
                        </g>
                        <path d="M56.2216687,2.5 L44.8801952,33.936232 C43.0059257,39.1313217 45.6979825,44.8621697 50.8930722,46.7364395 C51.981443,47.1290988 53.1297017,47.3298973 54.2867375,47.3298973 L222.033114,47.3298973" id="Path-6" stroke="#3C3B5C" stroke-width="7.5"></path>
                        <path d="M131.260853,5.1617122 L131.260853,48.6822852" id="Path-7" stroke="#3C3B5C" stroke-width="7.5"></path>
                    </g>
                </g>
            </g>
            <path d="M164.910443,79.818026 C166.979802,79.818026 168.657584,78.140244 168.657584,76.070885 L168.657584,71.1547262 L173.573742,71.1547262 C175.643102,71.1547262 177.320884,69.4769443 177.320884,67.4075845 C177.320884,65.3410827 175.643102,63.6633005 173.573742,63.6633005 L168.657584,63.6633005 L168.657584,58.744284 C168.657584,56.6749242 166.979802,55 164.910443,55 C162.841082,55 161.1633,56.6749242 161.1633,58.744284 L161.1633,63.6633005 L156.247142,63.6633005 C154.177782,63.6633005 152.5,65.3410827 152.5,67.4075845 C152.5,69.4769443 154.177782,71.1547262 156.247142,71.1547262 L161.1633,71.1547262 L161.1633,76.070885 C161.1633,78.140244 162.841082,79.818026 164.910443,79.818026 Z" id="Path" fill="#3C3B5C" fill-rule="nonzero"></path>
            <path d="M204.910443,42.318026 C206.979802,42.318026 208.657584,40.640244 208.657584,38.570885 L208.657584,33.6547263 L213.573742,33.6547263 C215.643102,33.6547263 217.320884,31.9769442 217.320884,29.9075845 C217.320884,27.8410827 215.643102,26.1633005 213.573742,26.1633005 L208.657584,26.1633005 L208.657584,21.2442839 C208.657584,19.1749241 206.979802,17.5 204.910443,17.5 C202.841082,17.5 201.1633,19.1749241 201.1633,21.2442839 L201.1633,26.1633005 L196.247142,26.1633005 C194.177782,26.1633005 192.5,27.8410827 192.5,29.9075845 C192.5,31.9769442 194.177782,33.6547263 196.247142,33.6547263 L201.1633,33.6547263 L201.1633,38.570885 C201.1633,40.640244 202.841082,42.318026 204.910443,42.318026 Z" id="Path-Copy" fill="#3C3B5C" fill-rule="nonzero"></path>
            <path d="M37.4104425,84.818026 C39.4798015,84.818026 41.1575838,83.140244 41.1575838,81.070885 L41.1575838,76.1547262 L46.0737423,76.1547262 C48.143102,76.1547262 49.8208842,74.4769443 49.8208842,72.4075845 C49.8208842,70.3410827 48.143102,68.6633005 46.0737423,68.6633005 L41.1575838,68.6633005 L41.1575838,63.744284 C41.1575838,61.6749242 39.4798015,60 37.4104425,60 C35.341082,60 33.6633005,61.6749242 33.6633005,63.744284 L33.6633005,68.6633005 L28.747142,68.6633005 C26.6777822,68.6633005 25,70.3410827 25,72.4075845 C25,74.4769443 26.6777822,76.1547262 28.747142,76.1547262 L33.6633005,76.1547262 L33.6633005,81.070885 C33.6633005,83.140244 35.341082,84.818026 37.4104425,84.818026 Z" id="Path-Copy-2" fill="#3C3B5C" fill-rule="nonzero"></path>
            <g id="Group-24" transform="translate(75.000000, 22.500000)" fill-rule="nonzero">
                <path d="M1.92930585,27.5161968 L7.14557853,30.4058693 C11.7216081,32.943979 15.4658912,36.7368528 17.9697022,41.381479 L20.8222178,46.6634913 C21.4738946,47.8753815 22.7400907,48.6299548 24.1177588,48.6299548 C25.4954268,48.6299548 26.761623,47.8753815 27.4132998,46.6634913 L30.2658153,41.381479 C32.7696263,36.7368528 36.5110515,32.943979 41.089939,30.4058693 L46.3033538,27.5161968 C47.495236,26.855945 48.2355175,25.60404 48.2355175,24.2406629 C48.2355175,22.8772866 47.495236,21.6253815 46.3033538,20.9651298 L41.089939,18.0725993 C36.5139095,15.5373476 32.7724845,11.7444746 30.2658153,7.10270635 L27.4132998,1.81783537 C26.107088,-0.605945122 22.1284295,-0.605945122 20.8222178,1.81783537 L17.9697022,7.10270635 C15.4630332,11.7444746 11.7216081,15.5373476 7.14557853,18.0725993 L1.92930585,20.9651298 C0.740281463,21.6253815 -1.97175609e-13,22.8772866 -1.97175609e-13,24.2406629 C-1.97175609e-13,25.60404 0.740281463,26.855945 1.92930585,27.5161968 L1.92930585,27.5161968 Z" id="Path" fill="#2196F3"></path>
                <path d="M1.92930585,27.5161968 L7.14557853,30.4058693 C11.7216081,32.943979 15.4658912,36.7368528 17.9697022,41.381479 L20.8222178,46.6634913 C21.4738946,47.8753815 22.7400907,48.6299548 24.1177588,48.6299548 C25.4954268,48.6299548 26.761623,47.8753815 27.4132998,46.6634913 L30.2658153,41.381479 C32.7696263,36.7368528 36.5110515,32.943979 41.089939,30.4058693 L46.3033538,27.5161968 C47.495236,26.855945 48.2355175,25.60404 48.2355175,24.2406629 C48.2355175,22.8772866 47.495236,21.6253815 46.3033538,20.9651298 L41.089939,18.0725993 C36.5139095,15.5373476 32.7724845,11.7444746 30.2658153,7.10270635 L27.4132998,1.81783537 C26.107088,-0.605945122 22.1284295,-0.605945122 20.8222178,1.81783537 L17.9697022,7.10270635 C15.4630332,11.7444746 11.7216081,15.5373476 7.14557853,18.0725993 L1.92930585,20.9651298 C0.740281463,21.6253815 -1.97175609e-13,22.8772866 -1.97175609e-13,24.2406629 C-1.97175609e-13,25.60404 0.740281463,26.855945 1.92930585,27.5161968 L1.92930585,27.5161968 Z M24.1177588,11.4615095 C27.1674923,16.7778205 31.5177205,21.1709225 36.7768668,24.2406629 C31.5177205,27.3132623 27.1646343,31.706365 24.1177588,37.022675 C21.0708834,31.706365 16.7177971,27.3132623 11.4557927,24.2406629 C16.714939,21.1709225 21.0680254,16.7778205 24.1177588,11.4615095 Z" id="Shape" fill="#3C3B5C"></path>
            </g>
        </g>
    </g>
</svg>